<svg width="28" height="28" viewBox="0 0 28 28" fill="none" xmlns="http://www.w3.org/2000/svg">
<path d="M26 4H16V2C16 1.46957 15.7893 0.960859 15.4142 0.585786C15.0391 0.210714 14.5304 0 14 0H2C1.46957 0 0.960859 0.210714 0.585786 0.585786C0.210714 0.960859 0 1.46957 0 2V22C0 22.5304 0.210714 23.0391 0.585786 23.4142C0.960859 23.7893 1.46957 24 2 24H12V26C12 26.5304 12.2107 27.0391 12.5858 27.4142C12.9609 27.7893 13.4696 28 14 28H26C26.5304 28 27.0391 27.7893 27.4142 27.4142C27.7893 27.0391 28 26.5304 28 26V6C28 5.46957 27.7893 4.96086 27.4142 4.58579C27.0391 4.21071 26.5304 4 26 4ZM2 13H8.17L5.59 15.59L7 17L12 12L7 7L5.59 8.41L8.17 11H2V2H14V22H2V13ZM14 26V24C14.5304 24 15.0391 23.7893 15.4142 23.4142C15.7893 23.0391 16 22.5304 16 22V6H26V15H19.83L22.41 12.41L21 11L16 16L21 21L22.41 19.59L19.83 17H26V26H14Z" fill="black"/>
</svg>
