<svg width="30" height="24" viewBox="0 0 30 24" fill="none" xmlns="http://www.w3.org/2000/svg">
<path d="M1.5 9.00001V18V9.00001ZM15 1.5V6V1.5ZM12 1.5H18H12ZM4.5 13.5H1.5H4.5ZM6 9.00001H9L12 6H17.073C17.3515 6.00015 17.6244 6.07783 17.8613 6.22433C18.0981 6.37084 18.2895 6.58038 18.414 6.8295L20.586 11.1705C20.7105 11.4196 20.9019 11.6292 21.1387 11.7757C21.3756 11.9222 21.6485 11.9999 21.927 12H24V9.00001H27C27.3978 9.00001 27.7794 9.15804 28.0607 9.43935C28.342 9.72065 28.5 10.1022 28.5 10.5V19.5C28.5 19.8978 28.342 20.2794 28.0607 20.5607C27.7794 20.842 27.3978 21 27 21H24V18H19.5V21C19.5 21.3978 19.342 21.7794 19.0607 22.0607C18.7794 22.342 18.3978 22.5 18 22.5H12.8025C12.5556 22.5001 12.3125 22.4391 12.0948 22.3227C11.8771 22.2063 11.6915 22.0379 11.5545 21.8325L9 18H6V9.00001Z" stroke="#FB0606" stroke-width="2" stroke-linecap="round" stroke-linejoin="round"/>
</svg>
