<svg width="30" height="30" viewBox="0 0 30 30" fill="none" xmlns="http://www.w3.org/2000/svg">
<path d="M19.6725 10.395V13.425M5.17496 1.14001C4.57822 1.14001 4.00593 1.37707 3.58397 1.79902C3.16201 2.22098 2.92496 2.79328 2.92496 3.39001V25.965H2.57996C2.20004 25.965 1.83568 26.1159 1.56703 26.3846C1.29838 26.6532 1.14746 27.0176 1.14746 27.3975C1.14746 27.7774 1.29838 28.1418 1.56703 28.4104C1.83568 28.6791 2.20004 28.83 2.57996 28.83H19.98C20.3599 28.83 20.7242 28.6791 20.9929 28.4104C21.2615 28.1418 21.4125 27.7774 21.4125 27.3975C21.4125 27.0176 21.2615 26.6532 20.9929 26.3846C20.7242 26.1159 20.3599 25.965 19.98 25.965H19.6725V13.215H20.4225C20.6458 13.2079 20.8647 13.2789 21.0413 13.4158C21.2179 13.5527 21.3412 13.7469 21.39 13.965V22.2975C21.3939 23.267 21.7808 24.1956 22.4663 24.8812C23.1518 25.5667 24.0805 25.9536 25.05 25.9575H25.2075C26.1763 25.9516 27.1038 25.5641 27.789 24.879C28.4741 24.1939 28.8616 23.2664 28.8675 22.2975V8.88001V6.05251C28.8656 5.66933 28.7119 5.30253 28.44 5.03251L24.96 1.57501C24.6894 1.30748 24.3237 1.15836 23.9433 1.16047C23.5628 1.16258 23.1988 1.31574 22.9312 1.58626C22.6637 1.85679 22.5146 2.22251 22.5167 2.60297C22.5188 2.98343 22.6719 3.34748 22.9425 3.61501L24.9075 5.56501L23.4075 7.06501C23.2319 7.24414 23.113 7.47108 23.0658 7.71742C23.0186 7.96376 23.045 8.21856 23.1419 8.44992C23.2388 8.68129 23.4017 8.87895 23.6104 9.01815C23.8191 9.15735 24.0641 9.23192 24.315 9.23251H25.965V13.5V22.2975C25.965 22.4964 25.8859 22.6872 25.7453 22.8278C25.6046 22.9685 25.4139 23.0475 25.215 23.0475H25.0575C24.8586 23.0475 24.6678 22.9685 24.5271 22.8278C24.3865 22.6872 24.3075 22.4964 24.3075 22.2975V14.85V14.25C24.3016 13.2394 23.8975 12.2718 23.1828 11.5572C22.4682 10.8425 21.5006 10.4384 20.49 10.4325H19.74V3.42001C19.74 2.82328 19.5029 2.25098 19.081 1.82902C18.659 1.40707 18.0867 1.17001 17.49 1.17001H5.17496V1.14001ZM7.04246 4.02751H15.525C15.695 4.02653 15.8636 4.05916 16.0209 4.12355C16.1783 4.18793 16.3214 4.2828 16.442 4.40268C16.5626 4.52257 16.6583 4.66511 16.7236 4.82211C16.7889 4.97911 16.8225 5.14748 16.8225 5.31751V11.4C16.8235 11.5707 16.7906 11.7398 16.7257 11.8977C16.6609 12.0556 16.5653 12.199 16.4447 12.3197C16.324 12.4404 16.1805 12.5359 16.0227 12.6008C15.8648 12.6656 15.6956 12.6985 15.525 12.6975H7.04246C6.87179 12.6985 6.70262 12.6656 6.54475 12.6008C6.38689 12.5359 6.24345 12.4404 6.12277 12.3197C6.00209 12.199 5.90655 12.0556 5.8417 11.8977C5.77685 11.7398 5.74397 11.5707 5.74496 11.4V5.31751C5.74496 5.14748 5.77857 4.97911 5.84387 4.82211C5.90917 4.66511 6.00486 4.52257 6.12544 4.40268C6.24602 4.2828 6.38912 4.18793 6.5465 4.12355C6.70387 4.05916 6.87243 4.02653 7.04246 4.02751V4.02751ZM13.5975 15.045C13.6341 15.048 13.6696 15.0597 13.7008 15.0791C13.7321 15.0984 13.7583 15.1249 13.7774 15.1564C13.7964 15.1879 13.8077 15.2235 13.8103 15.2602C13.8129 15.2968 13.8068 15.3336 13.7925 15.3675L12.4425 18.1575L13.8225 17.73C13.8638 17.7176 13.9077 17.7174 13.9492 17.7292C13.9906 17.7411 14.0278 17.7647 14.0562 17.7971C14.0846 17.8295 14.1032 17.8693 14.1096 17.912C14.116 17.9546 14.1101 17.9982 14.0925 18.0375L12.75 20.895L13.8825 20.6625C13.9294 20.6525 13.9784 20.6578 14.0221 20.6776C14.0659 20.6974 14.1021 20.7307 14.1256 20.7726C14.1491 20.8146 14.1585 20.8629 14.1526 20.9105C14.1466 20.9582 14.1255 21.0027 14.0925 21.0375L10.2825 25.23C10.2483 25.2667 10.203 25.291 10.1535 25.2989C10.104 25.3069 10.0533 25.2982 10.0094 25.274C9.96547 25.2499 9.93085 25.2118 9.91103 25.1658C9.89121 25.1198 9.88731 25.0685 9.89996 25.02L10.485 22.77L9.30746 23.22C9.26657 23.2364 9.22178 23.2404 9.17864 23.2315C9.13549 23.2227 9.09589 23.2014 9.06475 23.1702C9.03361 23.1391 9.01229 23.0995 9.00344 23.0563C8.99459 23.0132 8.9986 22.9684 9.01496 22.9275L10.1025 20.1375L8.60246 20.73C8.56078 20.7476 8.51476 20.7522 8.47042 20.7433C8.42607 20.7343 8.38546 20.7122 8.35388 20.6798C8.32229 20.6474 8.30121 20.6062 8.29337 20.5617C8.28554 20.5171 8.29132 20.4712 8.30996 20.43L10.0425 16.4025C10.0689 16.3483 10.1143 16.3056 10.17 16.2825L13.5 15.06H13.5825L13.5975 15.045Z" stroke="#FB0606" stroke-linecap="round" stroke-linejoin="round"/>
</svg>
