<svg width="29" height="28" viewBox="0 0 29 28" fill="none" xmlns="http://www.w3.org/2000/svg">
<path d="M19.25 16.625C19.25 16.3266 19.3685 16.0405 19.5795 15.8295C19.7905 15.6185 20.0766 15.5 20.375 15.5H23.375C23.6734 15.5 23.9595 15.6185 24.1705 15.8295C24.3815 16.0405 24.5 16.3266 24.5 16.625C24.5 16.9234 24.3815 17.2095 24.1705 17.4205C23.9595 17.6315 23.6734 17.75 23.375 17.75H20.375C20.0766 17.75 19.7905 17.6315 19.5795 17.4205C19.3685 17.2095 19.25 16.9234 19.25 16.625ZM0.5 3.5H0.521C0.613239 2.67498 1.00631 1.9129 1.62506 1.35946C2.24382 0.80601 3.04484 0.500025 3.875 0.5H21.125C21.5682 0.5 22.0071 0.587297 22.4166 0.756907C22.826 0.926516 23.1981 1.17512 23.5115 1.48851C23.8249 1.80191 24.0735 2.17397 24.2431 2.58344C24.4127 2.99292 24.5 3.43179 24.5 3.875V5.1305C25.5677 5.38401 26.5188 5.99028 27.1993 6.85125C27.8798 7.71222 28.25 8.77757 28.25 9.875V22.625C28.25 23.9179 27.7364 25.1579 26.8221 26.0721C25.9079 26.9864 24.6679 27.5 23.375 27.5H5.375C4.08207 27.5 2.84209 26.9864 1.92785 26.0721C1.01361 25.1579 0.5 23.9179 0.5 22.625V3.5ZM23.375 7.25H2.75V22.625C2.75 24.074 3.926 25.25 5.375 25.25H23.375C24.0712 25.25 24.7389 24.9734 25.2311 24.4812C25.7234 23.9889 26 23.3212 26 22.625V9.875C26 9.17881 25.7234 8.51113 25.2311 8.01884C24.7389 7.52656 24.0712 7.25 23.375 7.25ZM22.25 5V3.875C22.25 3.57663 22.1315 3.29048 21.9205 3.0795C21.7095 2.86853 21.4234 2.75 21.125 2.75H3.875C3.57663 2.75 3.29048 2.86853 3.0795 3.0795C2.86853 3.29048 2.75 3.57663 2.75 3.875C2.75 4.17337 2.86853 4.45952 3.0795 4.6705C3.29048 4.88147 3.57663 5 3.875 5H22.25Z" fill="#FB0606"/>
</svg>
