<svg width="80" height="62" viewBox="0 0 80 62" fill="none" xmlns="http://www.w3.org/2000/svg">
<path d="M73.3335 54.25H51.6668L46.7408 36.4343C46.6916 36.2563 46.6668 36.0749 46.6668 35.893V19.375L34.2828 11.6715C32.849 10.7795 32.6455 9.14701 33.8325 8.0588C34.8456 7.13003 36.5673 6.88997 37.9346 7.4868L53.3335 14.2083L59.9126 33.329C59.9708 33.4981 60.051 33.6622 60.152 33.8187L73.3335 54.25Z" stroke="black" stroke-width="4" stroke-linecap="round" stroke-linejoin="round"/>
<path d="M60.0003 33.5834L46.667 36.1667" stroke="black" stroke-width="4" stroke-linecap="round" stroke-linejoin="round"/>
<path d="M32.2987 32.9645L32.4052 33.0335C33.9773 34.0523 36.3523 33.7407 37.4042 32.3776L40.0003 29.0129V22.9519L33.867 19.375L23.267 20.4679L16.3579 30.9247C16.2752 31.0497 16.2058 31.1799 16.1505 31.3137L6.66699 54.25H26.6003V37.4583L28.3337 31.1126L29.167 28.4167H31.667L31.1608 30.5059C30.9382 31.4247 31.3733 32.3649 32.2987 32.9645Z" stroke="black" stroke-width="4" stroke-linecap="round" stroke-linejoin="round"/>
<path d="M16.667 32.2916L26.667 36.1666" stroke="black" stroke-width="4" stroke-linecap="round" stroke-linejoin="round"/>
</svg>
