<svg width="84" height="78" viewBox="0 0 84 78" fill="none" xmlns="http://www.w3.org/2000/svg">
<path d="M80.5702 30.5556H77.7924V13.8889C77.7924 13.1522 77.4997 12.4456 76.9788 11.9247C76.4579 11.4038 75.7513 11.1111 75.0146 11.1111H8.34796C7.69021 11.1218 7.05 10.8988 6.54132 10.4817C6.03264 10.0645 5.6885 9.48044 5.57018 8.83333V7.83333C5.6885 7.18623 6.03264 6.60212 6.54132 6.185C7.05 5.76788 7.69021 5.54483 8.34796 5.55555H73.848C74.5847 5.55555 75.2912 5.2629 75.8121 4.74196C76.3331 4.22103 76.6257 3.51449 76.6257 2.77778C76.6257 2.04106 76.3331 1.33453 75.8121 0.813593C75.2912 0.292658 74.5847 0 73.848 0H8.34796C6.13782 0 4.0182 0.877974 2.4554 2.44078C0.892597 4.00358 0.0146229 6.1232 0.0146229 8.33333C-0.0048743 8.66638 -0.0048743 9.00028 0.0146229 9.33333V66.4722C0.0255264 67.9678 0.330918 69.4467 0.91336 70.8243C1.4958 72.2019 2.34389 73.4512 3.40919 74.5011C4.47449 75.5509 5.73615 76.3806 7.12212 76.9428C8.50809 77.505 9.99123 77.7887 11.4868 77.7778H75.0146C75.7513 77.7778 76.4579 77.4851 76.9788 76.9642C77.4997 76.4432 77.7924 75.7367 77.7924 75V58.3333H80.5702C81.3069 58.3333 82.0134 58.0407 82.5344 57.5197C83.0553 56.9988 83.348 56.2923 83.348 55.5555V33.3333C83.348 32.5966 83.0553 31.8901 82.5344 31.3691C82.0134 30.8482 81.3069 30.5556 80.5702 30.5556ZM72.2368 72.2222H11.4868C9.94185 72.2371 8.45346 71.6414 7.34543 70.5646C6.23741 69.4878 5.5994 68.017 5.57018 66.4722V16.3333C6.47184 16.5946 7.41007 16.7072 8.34796 16.6667H72.2368V30.5556H52.7924C49.1088 30.5556 45.5761 32.0188 42.9715 34.6235C40.3668 37.2282 38.9035 40.7609 38.9035 44.4444C38.9035 48.128 40.3668 51.6607 42.9715 54.2654C45.5761 56.87 49.1088 58.3333 52.7924 58.3333H72.2368V72.2222ZM77.7924 52.7778H52.7924C50.5823 52.7778 48.4627 51.8998 46.8998 50.337C45.337 48.7742 44.4591 46.6546 44.4591 44.4444C44.4591 42.2343 45.337 40.1147 46.8998 38.5519C48.4627 36.9891 50.5823 36.1111 52.7924 36.1111H77.7924V52.7778Z" fill="black"/>
</svg>
